<svg width="17" height="18" viewBox="0 0 17 18" fill="none" xmlns="http://www.w3.org/2000/svg">
<path fill-rule="evenodd" clip-rule="evenodd" d="M15.6243 7.8933C15.875 7.64179 16.2822 7.64117 16.5337 7.89191C16.7852 8.14265 16.7858 8.5498 16.5351 8.80131L8.89001 16.4697C6.86014 18.5058 3.56405 18.5108 1.52764 16.4806C-0.508439 14.4445 -0.508439 11.1519 1.523 9.12047L9.57159 1.11574C11.0703 -0.374797 13.4925 -0.371486 14.9872 1.12314C16.4813 2.6173 16.4816 5.03973 14.9879 6.53429L6.81342 14.713C5.84675 15.6802 4.27906 15.6806 3.31182 14.7139C2.3442 13.7463 2.34153 12.1789 3.30545 11.2084L9.1724 5.3013C9.42267 5.04932 9.82982 5.04794 10.0818 5.2982C10.3338 5.54847 10.3352 5.95561 10.0849 6.20759L4.21794 12.1147C3.75335 12.5825 3.75463 13.3379 4.22076 13.804C4.68584 14.2689 5.43923 14.2687 5.90379 13.8039L14.0782 5.62513C15.07 4.63285 15.0698 3.02455 14.0778 2.03253C13.0844 1.03918 11.4746 1.03698 10.4785 2.02762L2.43997 10.0223C0.903202 11.5591 0.903202 14.0374 2.43142 15.5656C3.96905 17.0985 6.45084 17.0947 7.97923 15.5617L15.6243 7.8933Z" fill="black"/>
</svg>
